<svg width="300" height="40" viewBox="0 0 300 40" fill="none" xmlns="http://www.w3.org/2000/svg">
<path d="M88.8866 21.71C88.8346 24.167 90.9536 26.182 93.3976 26.143C94.9966 26.143 96.3486 25.376 97.0766 24.167L96.0366 23.4C95.4256 24.349 94.5416 24.882 93.4106 24.882C91.6556 24.882 90.3166 23.53 90.3166 21.71C90.3166 19.89 91.6556 18.538 93.4106 18.538C94.5416 18.538 95.4256 19.071 96.0366 20.02L97.0766 19.253C96.3356 18.044 94.9706 17.277 93.3976 17.277C90.9536 17.238 88.8346 19.253 88.8866 21.71ZM98.104 22.802C98.065 24.609 99.638 26.182 101.471 26.143C103.33 26.182 104.903 24.609 104.864 22.802C104.903 20.995 103.33 19.435 101.471 19.474C99.638 19.448 98.065 20.969 98.104 22.802ZM103.46 22.815C103.46 23.972 102.602 24.882 101.471 24.882C100.353 24.882 99.495 23.998 99.495 22.815C99.495 21.632 100.353 20.722 101.484 20.722C102.589 20.722 103.46 21.632 103.46 22.815ZM112.006 22.009C112.006 20.488 111.109 19.474 109.614 19.474C108.821 19.474 108.184 19.734 107.703 20.241V19.617H106.429V26H107.794V22.191C107.794 21.32 108.405 20.709 109.25 20.709C110.082 20.709 110.641 21.307 110.641 22.191V26H112.006V22.009ZM117.702 24.843C117.325 24.882 117.052 24.908 116.857 24.908C116.025 24.908 115.596 24.622 115.596 23.803V20.8H117.494V19.617H115.596V17.94H114.218V19.617H113.178V20.8H114.218V23.92C114.218 25.415 115.102 26.143 116.571 26.143C116.896 26.143 117.273 26.091 117.702 26V24.843ZM119.086 26H120.451V19.617H119.086V26ZM118.839 17.238C118.839 17.745 119.255 18.135 119.775 18.135C120.282 18.135 120.698 17.745 120.698 17.238C120.698 16.731 120.282 16.328 119.775 16.328C119.255 16.328 118.839 16.731 118.839 17.238ZM128.002 22.009C128.002 20.488 127.105 19.474 125.61 19.474C124.817 19.474 124.18 19.734 123.699 20.241V19.617H122.425V26H123.79V22.191C123.79 21.32 124.401 20.709 125.246 20.709C126.078 20.709 126.637 21.307 126.637 22.191V26H128.002V22.009ZM129.838 23.322C129.838 25.038 131.034 26.143 132.633 26.143C134.193 26.143 135.402 25.038 135.402 23.322V19.617H134.037V23.426C134.037 24.31 133.426 24.882 132.633 24.882C131.801 24.882 131.19 24.31 131.19 23.426V19.617H129.838V23.322ZM143.063 23.257C143.128 22.958 143.167 22.672 143.167 22.399C143.167 20.735 141.906 19.474 140.216 19.474C138.409 19.435 136.875 20.982 136.914 22.815C136.914 24.7 138.396 26.143 140.346 26.143C141.321 26.143 142.166 25.805 142.894 25.116L142.244 24.18C141.672 24.687 141.048 24.934 140.385 24.934C139.293 24.934 138.474 24.297 138.305 23.257H143.063ZM138.331 22.191C138.539 21.242 139.267 20.631 140.164 20.631C141.061 20.631 141.789 21.216 141.802 22.191H138.331ZM156.392 19.617L154.741 23.738L152.778 19.474H152.31L150.373 23.79L148.696 19.617H147.24L150.074 26.143H150.542L152.544 21.892L154.546 26.143H155.014L157.848 19.617H156.392ZM159.076 26H160.441V19.617H159.076V26ZM158.829 17.238C158.829 17.745 159.245 18.135 159.765 18.135C160.272 18.135 160.688 17.745 160.688 17.238C160.688 16.731 160.272 16.328 159.765 16.328C159.245 16.328 158.829 16.731 158.829 17.238ZM166.211 24.843C165.834 24.882 165.561 24.908 165.366 24.908C164.534 24.908 164.105 24.622 164.105 23.803V20.8H166.003V19.617H164.105V17.94H162.727V19.617H161.687V20.8H162.727V23.92C162.727 25.415 163.611 26.143 165.08 26.143C165.405 26.143 165.782 26.091 166.211 26V24.843ZM173.172 22.009C173.172 20.501 172.262 19.474 170.806 19.474C170.039 19.474 169.389 19.747 168.96 20.254V16.25H167.595V26H168.96V22.204C168.96 21.333 169.571 20.722 170.416 20.722C171.261 20.722 171.807 21.32 171.807 22.204V26H173.172V22.009ZM178.807 26H180.185V22.464H183.591V21.216H180.185V18.655H184.319V17.42H178.807V26ZM190.324 22.139C190.324 20.423 189.284 19.474 187.711 19.474C186.606 19.474 185.657 19.916 185.02 20.839L185.813 21.645C186.346 21.008 186.866 20.696 187.581 20.696C188.452 20.696 188.946 21.177 188.946 22.061V22.477H187.139C185.696 22.477 184.786 23.192 184.786 24.297C184.786 25.402 185.67 26.143 187.009 26.143C187.88 26.143 188.582 25.844 189.05 25.285V26H190.324V22.139ZM188.946 23.582C188.946 24.453 188.218 25.09 187.295 25.09C186.632 25.09 186.177 24.778 186.177 24.245C186.177 23.725 186.58 23.465 187.308 23.465H188.946V23.582ZM191.821 22.802C191.821 24.661 193.316 26.143 195.201 26.143C196.358 26.143 197.32 25.584 197.892 24.661L196.93 23.92C196.462 24.557 195.89 24.882 195.214 24.882C194.07 24.882 193.212 23.972 193.212 22.802C193.212 21.645 194.07 20.735 195.214 20.735C195.903 20.735 196.475 21.06 196.93 21.71L197.892 20.956C197.333 20.033 196.384 19.474 195.201 19.474C193.368 19.448 191.782 20.969 191.821 22.802ZM205.016 23.257C205.081 22.958 205.12 22.672 205.12 22.399C205.12 20.735 203.859 19.474 202.169 19.474C200.362 19.435 198.828 20.982 198.867 22.815C198.867 24.7 200.349 26.143 202.299 26.143C203.274 26.143 204.119 25.805 204.847 25.116L204.197 24.18C203.625 24.687 203.001 24.934 202.338 24.934C201.246 24.934 200.427 24.297 200.258 23.257H205.016ZM200.284 22.191C200.492 21.242 201.22 20.631 202.117 20.631C203.014 20.631 203.742 21.216 203.755 22.191H200.284ZM213.314 22.815C213.314 20.917 211.988 19.474 210.181 19.474C209.297 19.474 208.53 19.812 208.049 20.397V16.25H206.684V26H207.958V25.116C208.439 25.779 209.258 26.143 210.194 26.143C211.975 26.143 213.314 24.7 213.314 22.815ZM211.91 22.802C211.91 24.024 211.065 24.895 209.96 24.895C208.959 24.895 208.036 24.206 208.036 22.815C208.036 21.411 208.959 20.722 209.96 20.722C211.052 20.722 211.91 21.58 211.91 22.802ZM214.482 22.802C214.443 24.609 216.016 26.182 217.849 26.143C219.708 26.182 221.281 24.609 221.242 22.802C221.281 20.995 219.708 19.435 217.849 19.474C216.016 19.448 214.443 20.969 214.482 22.802ZM219.838 22.815C219.838 23.972 218.98 24.882 217.849 24.882C216.731 24.882 215.873 23.998 215.873 22.815C215.873 21.632 216.731 20.722 217.862 20.722C218.967 20.722 219.838 21.632 219.838 22.815ZM222.404 22.802C222.365 24.609 223.938 26.182 225.771 26.143C227.63 26.182 229.203 24.609 229.164 22.802C229.203 20.995 227.63 19.435 225.771 19.474C223.938 19.448 222.365 20.969 222.404 22.802ZM227.76 22.815C227.76 23.972 226.902 24.882 225.771 24.882C224.653 24.882 223.795 23.998 223.795 22.815C223.795 21.632 224.653 20.722 225.784 20.722C226.889 20.722 227.76 21.632 227.76 22.815ZM230.729 26H232.094V16.25H230.729V26ZM233.745 22.425L236.319 19.617H234.629L232.133 22.412L234.902 26H236.54L233.745 22.425Z" fill="#727272"/>
<path d="M77.3309 14.3208H79.1567V11.1408C78.8417 11.0975 77.7584 11 76.4967 11C70.7201 11 72.2917 17.5417 72.0617 18.5H69.1559V22.055H72.0609V31H75.6226V22.0558H78.4101L78.8526 18.5008H75.6217C75.7784 16.1475 74.9876 14.3208 77.3309 14.3208Z" fill="#3B5999"/>
<rect x="0.5" y="0.5" width="299" height="39" rx="4.5" stroke="#EAEAEA"/>
</svg>
