<svg width="300" height="40" viewBox="0 0 300 40" fill="none" xmlns="http://www.w3.org/2000/svg">
<rect x="0.5" y="0.5" width="299" height="39" rx="4.5" stroke="#EAEAEA"/>
<path d="M98.5912 20.71C98.5392 23.167 100.658 25.182 103.102 25.143C104.701 25.143 106.053 24.376 106.781 23.167L105.741 22.4C105.13 23.349 104.246 23.882 103.115 23.882C101.36 23.882 100.021 22.53 100.021 20.71C100.021 18.89 101.36 17.538 103.115 17.538C104.246 17.538 105.13 18.071 105.741 19.02L106.781 18.253C106.04 17.044 104.675 16.277 103.102 16.277C100.658 16.238 98.5392 18.253 98.5912 20.71ZM107.809 21.802C107.77 23.609 109.343 25.182 111.176 25.143C113.035 25.182 114.608 23.609 114.569 21.802C114.608 19.995 113.035 18.435 111.176 18.474C109.343 18.448 107.77 19.969 107.809 21.802ZM113.165 21.815C113.165 22.972 112.307 23.882 111.176 23.882C110.058 23.882 109.2 22.998 109.2 21.815C109.2 20.632 110.058 19.722 111.189 19.722C112.294 19.722 113.165 20.632 113.165 21.815ZM121.711 21.009C121.711 19.488 120.814 18.474 119.319 18.474C118.526 18.474 117.889 18.734 117.408 19.241V18.617H116.134V25H117.499V21.191C117.499 20.32 118.11 19.709 118.955 19.709C119.787 19.709 120.346 20.307 120.346 21.191V25H121.711V21.009ZM127.407 23.843C127.03 23.882 126.757 23.908 126.562 23.908C125.73 23.908 125.301 23.622 125.301 22.803V19.8H127.199V18.617H125.301V16.94H123.923V18.617H122.883V19.8H123.923V22.92C123.923 24.415 124.807 25.143 126.276 25.143C126.601 25.143 126.978 25.091 127.407 25V23.843ZM128.791 25H130.156V18.617H128.791V25ZM128.544 16.238C128.544 16.745 128.96 17.135 129.48 17.135C129.987 17.135 130.403 16.745 130.403 16.238C130.403 15.731 129.987 15.328 129.48 15.328C128.96 15.328 128.544 15.731 128.544 16.238ZM137.707 21.009C137.707 19.488 136.81 18.474 135.315 18.474C134.522 18.474 133.885 18.734 133.404 19.241V18.617H132.13V25H133.495V21.191C133.495 20.32 134.106 19.709 134.951 19.709C135.783 19.709 136.342 20.307 136.342 21.191V25H137.707V21.009ZM139.542 22.322C139.542 24.038 140.738 25.143 142.337 25.143C143.897 25.143 145.106 24.038 145.106 22.322V18.617H143.741V22.426C143.741 23.31 143.13 23.882 142.337 23.882C141.505 23.882 140.894 23.31 140.894 22.426V18.617H139.542V22.322ZM152.767 22.257C152.832 21.958 152.871 21.672 152.871 21.399C152.871 19.735 151.61 18.474 149.92 18.474C148.113 18.435 146.579 19.982 146.618 21.815C146.618 23.7 148.1 25.143 150.05 25.143C151.025 25.143 151.87 24.805 152.598 24.116L151.948 23.18C151.376 23.687 150.752 23.934 150.089 23.934C148.997 23.934 148.178 23.297 148.009 22.257H152.767ZM148.035 21.191C148.243 20.242 148.971 19.631 149.868 19.631C150.765 19.631 151.493 20.216 151.506 21.191H148.035ZM166.096 18.617L164.445 22.738L162.482 18.474H162.014L160.077 22.79L158.4 18.617H156.944L159.778 25.143H160.246L162.248 20.892L164.25 25.143H164.718L167.552 18.617H166.096ZM168.781 25H170.146V18.617H168.781V25ZM168.534 16.238C168.534 16.745 168.95 17.135 169.47 17.135C169.977 17.135 170.393 16.745 170.393 16.238C170.393 15.731 169.977 15.328 169.47 15.328C168.95 15.328 168.534 15.731 168.534 16.238ZM175.916 23.843C175.539 23.882 175.266 23.908 175.071 23.908C174.239 23.908 173.81 23.622 173.81 22.803V19.8H175.708V18.617H173.81V16.94H172.432V18.617H171.392V19.8H172.432V22.92C172.432 24.415 173.316 25.143 174.785 25.143C175.11 25.143 175.487 25.091 175.916 25V23.843ZM182.877 21.009C182.877 19.501 181.967 18.474 180.511 18.474C179.744 18.474 179.094 18.747 178.665 19.254V15.25H177.3V25H178.665V21.204C178.665 20.333 179.276 19.722 180.121 19.722C180.966 19.722 181.512 20.32 181.512 21.204V25H182.877V21.009ZM187.992 20.71C187.953 23.167 190.007 25.182 192.516 25.143C194.245 25.143 195.753 24.246 196.52 22.881V20.463H192.503V21.685H195.142V22.608C194.609 23.427 193.712 23.908 192.581 23.908C190.735 23.908 189.422 22.53 189.422 20.697C189.422 18.89 190.696 17.538 192.503 17.538C193.569 17.538 194.427 17.993 195.064 18.89L196.065 18.071C195.246 16.927 194.011 16.277 192.516 16.277C190.033 16.238 187.94 18.253 187.992 20.71ZM197.717 21.802C197.678 23.609 199.251 25.182 201.084 25.143C202.943 25.182 204.516 23.609 204.477 21.802C204.516 19.995 202.943 18.435 201.084 18.474C199.251 18.448 197.678 19.969 197.717 21.802ZM203.073 21.815C203.073 22.972 202.215 23.882 201.084 23.882C199.966 23.882 199.108 22.998 199.108 21.815C199.108 20.632 199.966 19.722 201.097 19.722C202.202 19.722 203.073 20.632 203.073 21.815ZM205.639 21.802C205.6 23.609 207.173 25.182 209.006 25.143C210.865 25.182 212.438 23.609 212.399 21.802C212.438 19.995 210.865 18.435 209.006 18.474C207.173 18.448 205.6 19.969 205.639 21.802ZM210.995 21.815C210.995 22.972 210.137 23.882 209.006 23.882C207.888 23.882 207.03 22.998 207.03 21.815C207.03 20.632 207.888 19.722 209.019 19.722C210.124 19.722 210.995 20.632 210.995 21.815ZM218.969 18.617V19.527C218.501 18.864 217.682 18.474 216.707 18.474C214.939 18.474 213.6 19.813 213.6 21.672C213.6 23.531 214.926 24.87 216.707 24.87C217.591 24.87 218.384 24.545 218.865 23.96V24.415C218.865 25.611 218.111 26.235 216.954 26.235C216.083 26.235 215.433 25.897 214.718 25.325L213.964 26.274C214.731 26.989 215.771 27.483 217.032 27.483C218.969 27.483 220.23 26.352 220.23 24.337V18.617H218.969ZM218.878 21.659C218.878 22.309 218.683 22.803 218.306 23.154C217.929 23.505 217.487 23.674 216.954 23.674C216.395 23.674 215.94 23.492 215.563 23.128C215.186 22.751 215.004 22.27 215.004 21.672C215.004 21.087 215.186 20.606 215.563 20.242C215.94 19.878 216.395 19.696 216.954 19.696C218.007 19.696 218.878 20.359 218.878 21.659ZM222.203 25H223.568V15.25H222.203V25ZM231.288 22.257C231.353 21.958 231.392 21.672 231.392 21.399C231.392 19.735 230.131 18.474 228.441 18.474C226.634 18.435 225.1 19.982 225.139 21.815C225.139 23.7 226.621 25.143 228.571 25.143C229.546 25.143 230.391 24.805 231.119 24.116L230.469 23.18C229.897 23.687 229.273 23.934 228.61 23.934C227.518 23.934 226.699 23.297 226.53 22.257H231.288ZM226.556 21.191C226.764 20.242 227.492 19.631 228.389 19.631C229.286 19.631 230.014 20.216 230.027 21.191H226.556Z" fill="#727272"/>
<g clip-path="url(#clip0_2_2066)">
<path d="M85.4336 27.6055C83.6992 29.0703 81.4492 30 79 30C75.3555 30 72.1562 27.9922 70.4219 25.0625L71.0712 22.0695L73.9492 21.5352C74.6172 23.6914 76.6328 25.2734 79 25.2734C80.1484 25.2734 81.2148 24.9102 82.0937 24.2656L84.8594 24.6875L85.4336 27.6055Z" fill="#59C36A"/>
<path d="M85.4336 27.6055L84.8594 24.6875L82.0937 24.2656C81.2148 24.9102 80.1484 25.2735 79 25.2735V30C81.4493 30 83.6992 29.0703 85.4336 27.6055Z" fill="#00A66C"/>
<path d="M73.7266 20C73.7266 20.539 73.8086 21.0546 73.9492 21.5352L70.4219 25.0625C69.543 23.5859 69 21.8515 69 20C69 18.1484 69.543 16.4141 70.4219 14.9375L73.2529 15.4247L73.9492 18.4648C73.8086 18.9453 73.7266 19.4609 73.7266 20Z" fill="#FFDA2D"/>
<path d="M89 20C89 23.0468 87.5899 25.7773 85.4336 27.6055L82.0938 24.2656C82.7734 23.7734 83.3477 23.1171 83.7227 22.3437H79C78.6718 22.3437 78.4141 22.0859 78.4141 21.7578V18.2422C78.4141 17.914 78.6718 17.6562 79 17.6562H88.25C88.5312 17.6562 88.7773 17.8554 88.8242 18.1367C88.9414 18.7461 89 19.3789 89 20Z" fill="#4086F4"/>
<path d="M83.7227 22.3437C83.3477 23.1171 82.7734 23.7734 82.0938 24.2656L85.4336 27.6055C87.5899 25.7773 89 23.0469 89 20C89 19.3789 88.9414 18.7461 88.8242 18.1367C88.7773 17.8554 88.5312 17.6562 88.25 17.6562H79V22.3437H83.7227Z" fill="#4175DF"/>
<path d="M85.5976 12.7929C85.6094 12.957 85.5391 13.1094 85.4336 13.2265L82.9258 15.7226C82.7266 15.9336 82.3985 15.957 82.1641 15.7812C81.2382 15.0898 80.1484 14.7266 79 14.7266C76.6328 14.7266 74.6172 16.3086 73.9492 18.4648L70.4219 14.9375C72.1562 12.0078 75.3555 10 79 10C81.332 10 83.6055 10.8594 85.3867 12.3593C85.5156 12.4648 85.5859 12.6289 85.5976 12.7929Z" fill="#FF641A"/>
<path d="M82.1641 15.7812C82.3984 15.957 82.7265 15.9336 82.9257 15.7226L85.4336 13.2265C85.5391 13.1094 85.6094 12.957 85.5976 12.7929C85.5859 12.6288 85.5156 12.4648 85.3867 12.3593C83.6055 10.8594 81.332 10 79 10V14.7266C80.1484 14.7266 81.2382 15.0898 82.1641 15.7812Z" fill="#F03800"/>
</g>
<defs>
<clipPath id="clip0_2_2066">
<rect width="20" height="20" fill="white" transform="translate(69 10)"/>
</clipPath>
</defs>
</svg>
