<svg aria-hidden="true" style="position: absolute; width: 0; height: 0; overflow: hidden;" version="1.1" xmlns="http://www.w3.org/2000/svg" xmlns:xlink="http://www.w3.org/1999/xlink">
<defs>
<symbol id="icon-arrow-right" viewBox="0 0 35 32">
<path d="M32 16c0 0.957-0.776 1.733-1.733 1.733h-28.533c-0.957 0-1.733-0.776-1.733-1.733v0c0-0.957 0.776-1.733 1.733-1.733h28.533c0.957 0 1.733 0.776 1.733 1.733v0z"></path>
<path d="M24.531 7.888c-1.584-1.126-3.317-2.109-4.971-2.909-0.862-0.417-1.271-1.432-0.894-2.312v0c0.377-0.88 1.398-1.291 2.261-0.877 1.844 0.883 3.802 1.986 5.612 3.273 2.32 1.649 4.51 3.678 5.854 6.035 1.378 2.415 1.882 5.22 0.673 8.162-1.17 2.847-3.839 5.553-8.183 8.129-0.801 0.475-1.663 0.948-2.589 1.419-0.853 0.434-1.888 0.059-2.295-0.807v0c-0.408-0.866-0.034-1.895 0.818-2.331 0.828-0.424 1.593-0.845 2.298-1.262 4.037-2.394 5.981-4.608 6.744-6.465 0.725-1.762 0.483-3.443-0.478-5.126-0.994-1.742-2.735-3.423-4.852-4.927z"></path>
</symbol>
</defs>
</svg>
