<svg aria-hidden="true" style="position: absolute; width: 0; height: 0; overflow: hidden;" version="1.1" xmlns="http://www.w3.org/2000/svg" xmlns:xlink="http://www.w3.org/1999/xlink">
<defs>
<symbol id="icon-strelka" viewBox="0 0 32 32">
<path d="M5.333 15.634c0-0.506 0.376-0.925 0.864-0.991l0.136-0.009h20c0.552 0 1 0.448 1 1 0 0.506-0.376 0.925-0.864 0.991l-0.136 0.009h-20c-0.552 0-1-0.448-1-1z"></path>
<path d="M17.561 8.31c-0.391-0.39-0.393-1.023-0.003-1.414 0.354-0.356 0.91-0.389 1.302-0.1l0.112 0.097 8.067 8.032c0.357 0.355 0.389 0.913 0.097 1.305l-0.097 0.112-8.067 8.033c-0.391 0.39-1.024 0.388-1.414-0.003-0.354-0.356-0.385-0.911-0.094-1.302l0.097-0.112 7.355-7.325-7.355-7.323z"></path>
</symbol>
</defs>
</svg>
